<mxfile host="app.diagrams.net" modified="2024-05-17T16:37:37.252Z" agent="Mozilla/5.0 (Windows NT 10.0; Win64; x64) AppleWebKit/537.36 (KHTML, like Gecko) Chrome/124.0.0.0 Safari/537.36 Edg/124.0.0.0" etag="g-u11amm-Amv2Zan60EB" version="24.2.2" type="device">
  <diagram id="2f404044-711c-603c-8f00-f6bb4c023d3c" name="Page-1">
    <mxGraphModel dx="3427" dy="1035" grid="1" gridSize="10" guides="1" tooltips="1" connect="1" arrows="1" fold="1" page="1" pageScale="1" pageWidth="1169" pageHeight="827" background="none" math="0" shadow="0">
      <root>
        <mxCell id="0" />
        <mxCell id="1" parent="0" />
        <mxCell id="ATVPQ-0Seo1s80Umxvkz-62" value="" style="image;aspect=fixed;html=1;points=[];align=center;fontSize=12;image=img/lib/azure2/databases/Azure_Database_PostgreSQL_Server.svg;" vertex="1" parent="1">
          <mxGeometry x="970" y="150" width="67.5" height="90" as="geometry" />
        </mxCell>
        <mxCell id="ATVPQ-0Seo1s80Umxvkz-66" value="&lt;font style=&quot;font-size: 18px;&quot;&gt;PostgreSQL DB&lt;/font&gt;" style="text;html=1;align=center;verticalAlign=middle;whiteSpace=wrap;rounded=0;" vertex="1" parent="1">
          <mxGeometry x="940" y="260" width="150" height="30" as="geometry" />
        </mxCell>
        <mxCell id="ATVPQ-0Seo1s80Umxvkz-67" value="" style="image;aspect=fixed;perimeter=ellipsePerimeter;html=1;align=center;shadow=0;dashed=0;spacingTop=3;image=img/lib/active_directory/database_server.svg;" vertex="1" parent="1">
          <mxGeometry x="819.74" y="154" width="70.52" height="86" as="geometry" />
        </mxCell>
        <mxCell id="ATVPQ-0Seo1s80Umxvkz-68" value="" style="image;html=1;image=img/lib/clip_art/networking/Cloud_Computer_128x128.png" vertex="1" parent="1">
          <mxGeometry x="585" y="345" width="150" height="103" as="geometry" />
        </mxCell>
        <mxCell id="ATVPQ-0Seo1s80Umxvkz-69" value="&lt;font style=&quot;font-size: 18px;&quot;&gt;Render Cloud Service&lt;/font&gt;" style="text;html=1;align=center;verticalAlign=middle;whiteSpace=wrap;rounded=0;" vertex="1" parent="1">
          <mxGeometry x="540" y="471.5" width="210" height="30" as="geometry" />
        </mxCell>
        <mxCell id="ATVPQ-0Seo1s80Umxvkz-70" value="&lt;font style=&quot;font-size: 18px;&quot;&gt;DB Server&lt;/font&gt;" style="text;html=1;align=center;verticalAlign=middle;whiteSpace=wrap;rounded=0;" vertex="1" parent="1">
          <mxGeometry x="780" y="260" width="150" height="30" as="geometry" />
        </mxCell>
        <mxCell id="ATVPQ-0Seo1s80Umxvkz-95" style="edgeStyle=orthogonalEdgeStyle;rounded=0;orthogonalLoop=1;jettySize=auto;html=1;" edge="1" parent="1" source="ATVPQ-0Seo1s80Umxvkz-71">
          <mxGeometry relative="1" as="geometry">
            <mxPoint x="267.1399999999999" y="150" as="targetPoint" />
          </mxGeometry>
        </mxCell>
        <mxCell id="ATVPQ-0Seo1s80Umxvkz-71" value="" style="sketch=0;outlineConnect=0;fontColor=#232F3E;gradientColor=none;fillColor=#8C4FFF;strokeColor=none;dashed=0;verticalLabelPosition=bottom;verticalAlign=top;align=center;html=1;fontSize=12;fontStyle=0;aspect=fixed;pointerEvents=1;shape=mxgraph.aws4.data_exchange_for_apis;" vertex="1" parent="1">
          <mxGeometry y="110" width="80" height="80" as="geometry" />
        </mxCell>
        <mxCell id="ATVPQ-0Seo1s80Umxvkz-94" style="edgeStyle=orthogonalEdgeStyle;rounded=0;orthogonalLoop=1;jettySize=auto;html=1;exitX=0.5;exitY=0;exitDx=0;exitDy=0;" edge="1" parent="1" source="ATVPQ-0Seo1s80Umxvkz-77" target="ATVPQ-0Seo1s80Umxvkz-71">
          <mxGeometry relative="1" as="geometry" />
        </mxCell>
        <mxCell id="ATVPQ-0Seo1s80Umxvkz-77" value="" style="rounded=1;whiteSpace=wrap;html=1;" vertex="1" parent="1">
          <mxGeometry x="-250" y="326" width="480" height="270" as="geometry" />
        </mxCell>
        <mxCell id="ATVPQ-0Seo1s80Umxvkz-101" style="edgeStyle=orthogonalEdgeStyle;rounded=0;orthogonalLoop=1;jettySize=auto;html=1;" edge="1" parent="1" source="ATVPQ-0Seo1s80Umxvkz-78" target="ATVPQ-0Seo1s80Umxvkz-79">
          <mxGeometry relative="1" as="geometry">
            <Array as="points">
              <mxPoint x="-44" y="523" />
              <mxPoint x="-44" y="466" />
            </Array>
          </mxGeometry>
        </mxCell>
        <mxCell id="ATVPQ-0Seo1s80Umxvkz-78" value="" style="sketch=0;outlineConnect=0;fontColor=#232F3E;gradientColor=none;fillColor=#7AA116;strokeColor=none;dashed=0;verticalLabelPosition=bottom;verticalAlign=top;align=center;html=1;fontSize=12;fontStyle=0;aspect=fixed;pointerEvents=1;shape=mxgraph.aws4.iot_thing_vibration_sensor;" vertex="1" parent="1">
          <mxGeometry x="-179" y="491" width="63" height="63" as="geometry" />
        </mxCell>
        <mxCell id="ATVPQ-0Seo1s80Umxvkz-79" value="" style="outlineConnect=0;dashed=0;verticalLabelPosition=bottom;verticalAlign=top;align=center;html=1;shape=mxgraph.aws3.hardware_board;fillColor=#5294CF;gradientColor=none;" vertex="1" parent="1">
          <mxGeometry x="28" y="391.5" width="84" height="100.5" as="geometry" />
        </mxCell>
        <mxCell id="ATVPQ-0Seo1s80Umxvkz-80" value="&lt;font style=&quot;font-size: 18px;&quot;&gt;Demnetia Guardian&lt;/font&gt;&lt;div&gt;&lt;br&gt;&lt;/div&gt;" style="text;html=1;align=center;verticalAlign=middle;whiteSpace=wrap;rounded=0;" vertex="1" parent="1">
          <mxGeometry x="-12" y="507.5" width="180" height="30" as="geometry" />
        </mxCell>
        <mxCell id="ATVPQ-0Seo1s80Umxvkz-81" value="" style="html=1;verticalLabelPosition=bottom;align=center;labelBackgroundColor=#ffffff;verticalAlign=top;strokeWidth=2;strokeColor=#0080F0;shadow=0;dashed=0;shape=mxgraph.ios7.icons.monitor;" vertex="1" parent="1">
          <mxGeometry x="-179" y="363" width="90" height="40" as="geometry" />
        </mxCell>
        <mxCell id="ATVPQ-0Seo1s80Umxvkz-82" value="&lt;span style=&quot;font-size: 18px;&quot;&gt;LED Display&lt;/span&gt;" style="text;html=1;align=center;verticalAlign=middle;whiteSpace=wrap;rounded=0;" vertex="1" parent="1">
          <mxGeometry x="-188" y="417.5" width="108" height="30" as="geometry" />
        </mxCell>
        <mxCell id="ATVPQ-0Seo1s80Umxvkz-83" value="&lt;font style=&quot;font-size: 18px;&quot;&gt;GPS Sensor&lt;/font&gt;&lt;div&gt;&lt;br&gt;&lt;/div&gt;" style="text;html=1;align=center;verticalAlign=middle;whiteSpace=wrap;rounded=0;" vertex="1" parent="1">
          <mxGeometry x="-197" y="566" width="108" height="30" as="geometry" />
        </mxCell>
        <mxCell id="ATVPQ-0Seo1s80Umxvkz-84" value="&lt;font style=&quot;font-size: 24px;&quot;&gt;Patient Edge Device&lt;/font&gt;" style="text;html=1;align=center;verticalAlign=middle;whiteSpace=wrap;rounded=0;" vertex="1" parent="1">
          <mxGeometry x="-158" y="616" width="270" height="30" as="geometry" />
        </mxCell>
        <mxCell id="ATVPQ-0Seo1s80Umxvkz-85" value="" style="rounded=1;whiteSpace=wrap;html=1;" vertex="1" parent="1">
          <mxGeometry x="670" y="580" width="460" height="260" as="geometry" />
        </mxCell>
        <mxCell id="ATVPQ-0Seo1s80Umxvkz-86" value="" style="image;aspect=fixed;perimeter=ellipsePerimeter;html=1;align=center;shadow=0;dashed=0;spacingTop=3;image=img/lib/active_directory/internet_cloud.svg;" vertex="1" parent="1">
          <mxGeometry x="266.41999999999996" y="105" width="142.86" height="90" as="geometry" />
        </mxCell>
        <mxCell id="ATVPQ-0Seo1s80Umxvkz-96" style="edgeStyle=orthogonalEdgeStyle;rounded=0;orthogonalLoop=1;jettySize=auto;html=1;entryX=0.5;entryY=0;entryDx=0;entryDy=0;" edge="1" parent="1" source="ATVPQ-0Seo1s80Umxvkz-87" target="ATVPQ-0Seo1s80Umxvkz-68">
          <mxGeometry relative="1" as="geometry" />
        </mxCell>
        <mxCell id="ATVPQ-0Seo1s80Umxvkz-87" value="&lt;font style=&quot;font-size: 22px;&quot;&gt;Internet&lt;/font&gt;" style="text;html=1;align=center;verticalAlign=middle;whiteSpace=wrap;rounded=0;" vertex="1" parent="1">
          <mxGeometry x="308.57" y="135" width="58.57" height="30" as="geometry" />
        </mxCell>
        <mxCell id="ATVPQ-0Seo1s80Umxvkz-88" value="&lt;font style=&quot;font-size: 24px;&quot;&gt;Caretaker Client side&lt;/font&gt;" style="text;html=1;align=center;verticalAlign=middle;whiteSpace=wrap;rounded=0;" vertex="1" parent="1">
          <mxGeometry x="770" y="860" width="250" height="30" as="geometry" />
        </mxCell>
        <mxCell id="ATVPQ-0Seo1s80Umxvkz-89" value="" style="sketch=0;outlineConnect=0;fontColor=#232F3E;gradientColor=none;fillColor=#232F3D;strokeColor=none;dashed=0;verticalLabelPosition=bottom;verticalAlign=top;align=center;html=1;fontSize=12;fontStyle=0;aspect=fixed;pointerEvents=1;shape=mxgraph.aws4.mobile_client;" vertex="1" parent="1">
          <mxGeometry x="720" y="660" width="41" height="78" as="geometry" />
        </mxCell>
        <mxCell id="ATVPQ-0Seo1s80Umxvkz-90" value="" style="image;aspect=fixed;perimeter=ellipsePerimeter;html=1;align=center;shadow=0;dashed=0;spacingTop=3;image=img/lib/active_directory/web_server.svg;" vertex="1" parent="1">
          <mxGeometry x="877.2" y="366.5" width="74.8" height="93.5" as="geometry" />
        </mxCell>
        <mxCell id="ATVPQ-0Seo1s80Umxvkz-91" value="" style="sketch=0;html=1;aspect=fixed;strokeColor=none;shadow=0;fillColor=#3B8DF1;verticalAlign=top;labelPosition=center;verticalLabelPosition=bottom;shape=mxgraph.gcp2.maps_api" vertex="1" parent="1">
          <mxGeometry x="830" y="674" width="30.5" height="50" as="geometry" />
        </mxCell>
        <mxCell id="ATVPQ-0Seo1s80Umxvkz-92" value="" style="sketch=0;pointerEvents=1;shadow=0;dashed=0;html=1;strokeColor=none;labelPosition=center;verticalLabelPosition=bottom;verticalAlign=top;align=center;fillColor=#505050;shape=mxgraph.mscae.oms.alerts" vertex="1" parent="1">
          <mxGeometry x="890.26" y="674" width="41" height="50" as="geometry" />
        </mxCell>
        <mxCell id="ATVPQ-0Seo1s80Umxvkz-93" value="" style="shape=actor;whiteSpace=wrap;html=1;" vertex="1" parent="1">
          <mxGeometry x="1010" y="665" width="40" height="60" as="geometry" />
        </mxCell>
        <mxCell id="ATVPQ-0Seo1s80Umxvkz-105" value="&lt;font style=&quot;font-size: 18px;&quot;&gt;FastAPI REST API&lt;/font&gt;" style="text;html=1;align=center;verticalAlign=middle;whiteSpace=wrap;rounded=0;" vertex="1" parent="1">
          <mxGeometry x="-40" y="80" width="180" height="30" as="geometry" />
        </mxCell>
        <mxCell id="ATVPQ-0Seo1s80Umxvkz-106" value="&lt;font style=&quot;font-size: 18px;&quot;&gt;FastAPI REST Server&lt;/font&gt;" style="text;html=1;align=center;verticalAlign=middle;whiteSpace=wrap;rounded=0;" vertex="1" parent="1">
          <mxGeometry x="960" y="399" width="180" height="30" as="geometry" />
        </mxCell>
        <mxCell id="ATVPQ-0Seo1s80Umxvkz-107" value="" style="endArrow=classic;startArrow=classic;html=1;rounded=0;exitX=1;exitY=0.5;exitDx=0;exitDy=0;" edge="1" parent="1" source="ATVPQ-0Seo1s80Umxvkz-67">
          <mxGeometry width="50" height="50" relative="1" as="geometry">
            <mxPoint x="830" y="430" as="sourcePoint" />
            <mxPoint x="960" y="197" as="targetPoint" />
          </mxGeometry>
        </mxCell>
        <mxCell id="ATVPQ-0Seo1s80Umxvkz-108" value="" style="endArrow=classic;startArrow=classic;html=1;rounded=0;exitX=0.5;exitY=0;exitDx=0;exitDy=0;entryX=0;entryY=0.5;entryDx=0;entryDy=0;" edge="1" parent="1" source="ATVPQ-0Seo1s80Umxvkz-68" target="ATVPQ-0Seo1s80Umxvkz-67">
          <mxGeometry width="50" height="50" relative="1" as="geometry">
            <mxPoint x="830" y="430" as="sourcePoint" />
            <mxPoint x="880" y="380" as="targetPoint" />
            <Array as="points">
              <mxPoint x="660" y="197" />
            </Array>
          </mxGeometry>
        </mxCell>
        <mxCell id="ATVPQ-0Seo1s80Umxvkz-109" value="" style="endArrow=classic;startArrow=classic;html=1;rounded=0;exitX=1;exitY=0.5;exitDx=0;exitDy=0;" edge="1" parent="1" source="ATVPQ-0Seo1s80Umxvkz-68">
          <mxGeometry width="50" height="50" relative="1" as="geometry">
            <mxPoint x="830" y="430" as="sourcePoint" />
            <mxPoint x="870" y="400" as="targetPoint" />
          </mxGeometry>
        </mxCell>
        <mxCell id="ATVPQ-0Seo1s80Umxvkz-110" value="" style="endArrow=classic;startArrow=classic;html=1;rounded=0;exitX=0.471;exitY=0.003;exitDx=0;exitDy=0;exitPerimeter=0;" edge="1" parent="1" source="ATVPQ-0Seo1s80Umxvkz-85">
          <mxGeometry width="50" height="50" relative="1" as="geometry">
            <mxPoint x="830" y="430" as="sourcePoint" />
            <mxPoint x="890" y="470" as="targetPoint" />
          </mxGeometry>
        </mxCell>
        <mxCell id="ATVPQ-0Seo1s80Umxvkz-111" value="" style="endArrow=classic;startArrow=classic;html=1;rounded=0;" edge="1" parent="1" source="ATVPQ-0Seo1s80Umxvkz-89" target="ATVPQ-0Seo1s80Umxvkz-91">
          <mxGeometry width="50" height="50" relative="1" as="geometry">
            <mxPoint x="830" y="530" as="sourcePoint" />
            <mxPoint x="880" y="480" as="targetPoint" />
          </mxGeometry>
        </mxCell>
        <mxCell id="ATVPQ-0Seo1s80Umxvkz-112" value="" style="endArrow=classic;startArrow=classic;html=1;rounded=0;entryX=0;entryY=0.75;entryDx=0;entryDy=0;" edge="1" parent="1">
          <mxGeometry width="50" height="50" relative="1" as="geometry">
            <mxPoint x="940" y="698.23" as="sourcePoint" />
            <mxPoint x="1010" y="698.23" as="targetPoint" />
          </mxGeometry>
        </mxCell>
        <mxCell id="ATVPQ-0Seo1s80Umxvkz-114" value="" style="endArrow=classic;startArrow=classic;html=1;rounded=0;exitX=0.999;exitY=0.271;exitDx=0;exitDy=0;exitPerimeter=0;entryX=0.5;entryY=0;entryDx=0;entryDy=0;entryPerimeter=0;" edge="1" parent="1" source="ATVPQ-0Seo1s80Umxvkz-81" target="ATVPQ-0Seo1s80Umxvkz-79">
          <mxGeometry width="50" height="50" relative="1" as="geometry">
            <mxPoint x="360" y="456" as="sourcePoint" />
            <mxPoint x="410" y="406" as="targetPoint" />
            <Array as="points">
              <mxPoint x="70" y="374" />
            </Array>
          </mxGeometry>
        </mxCell>
        <mxCell id="ATVPQ-0Seo1s80Umxvkz-115" value="&lt;font style=&quot;font-size: 14px;&quot;&gt;Location &amp;amp; Alerts&lt;/font&gt;" style="text;html=1;align=center;verticalAlign=middle;whiteSpace=wrap;rounded=0;" vertex="1" parent="1">
          <mxGeometry x="840" y="738" width="110" height="30" as="geometry" />
        </mxCell>
        <mxCell id="ATVPQ-0Seo1s80Umxvkz-116" value="HTTP comms" style="text;html=1;align=center;verticalAlign=middle;whiteSpace=wrap;rounded=0;" vertex="1" parent="1">
          <mxGeometry x="130" y="116" width="100" height="30" as="geometry" />
        </mxCell>
        <mxCell id="ATVPQ-0Seo1s80Umxvkz-117" value="HTTP comms" style="text;html=1;align=center;verticalAlign=middle;whiteSpace=wrap;rounded=0;" vertex="1" parent="1">
          <mxGeometry x="890.26" y="510" width="100" height="30" as="geometry" />
        </mxCell>
        <mxCell id="ATVPQ-0Seo1s80Umxvkz-118" value="" style="html=1;verticalLabelPosition=bottom;align=center;labelBackgroundColor=#ffffff;verticalAlign=top;strokeWidth=2;strokeColor=#0080F0;shadow=0;dashed=0;shape=mxgraph.ios7.icons.wifi;pointerEvents=1" vertex="1" parent="1">
          <mxGeometry x="-60" y="286" width="29.7" height="21" as="geometry" />
        </mxCell>
        <mxCell id="ATVPQ-0Seo1s80Umxvkz-119" value="&lt;font style=&quot;font-size: 14px;&quot;&gt;over wifi&lt;/font&gt;" style="text;html=1;align=center;verticalAlign=middle;whiteSpace=wrap;rounded=0;" vertex="1" parent="1">
          <mxGeometry y="281.5" width="60" height="30" as="geometry" />
        </mxCell>
        <mxCell id="ATVPQ-0Seo1s80Umxvkz-120" value="" style="endArrow=none;dashed=1;html=1;dashPattern=1 3;strokeWidth=2;rounded=0;" edge="1" parent="1">
          <mxGeometry width="50" height="50" relative="1" as="geometry">
            <mxPoint x="420" y="890.0045966045673" as="sourcePoint" />
            <mxPoint x="420" y="42.62" as="targetPoint" />
          </mxGeometry>
        </mxCell>
        <mxCell id="ATVPQ-0Seo1s80Umxvkz-121" value="" style="image;html=1;image=img/lib/clip_art/people/Doctor_Man_128x128.png" vertex="1" parent="1">
          <mxGeometry x="480" y="738" width="80" height="80" as="geometry" />
        </mxCell>
        <mxCell id="ATVPQ-0Seo1s80Umxvkz-122" value="" style="verticalLabelPosition=bottom;aspect=fixed;html=1;shape=mxgraph.salesforce.analytics;" vertex="1" parent="1">
          <mxGeometry x="479.99999999999994" y="566" width="71.43" height="70" as="geometry" />
        </mxCell>
        <mxCell id="ATVPQ-0Seo1s80Umxvkz-125" style="edgeStyle=orthogonalEdgeStyle;rounded=0;orthogonalLoop=1;jettySize=auto;html=1;exitX=0.5;exitY=1;exitDx=0;exitDy=0;entryX=0.5;entryY=0;entryDx=0;entryDy=0;" edge="1" parent="1" source="ATVPQ-0Seo1s80Umxvkz-123" target="ATVPQ-0Seo1s80Umxvkz-121">
          <mxGeometry relative="1" as="geometry" />
        </mxCell>
        <mxCell id="ATVPQ-0Seo1s80Umxvkz-123" value="&lt;font style=&quot;font-size: 18px;&quot;&gt;Analytics Component&lt;/font&gt;" style="text;html=1;align=center;verticalAlign=middle;whiteSpace=wrap;rounded=0;" vertex="1" parent="1">
          <mxGeometry x="432.5" y="646" width="175" height="30" as="geometry" />
        </mxCell>
        <mxCell id="ATVPQ-0Seo1s80Umxvkz-124" value="&lt;font style=&quot;font-size: 18px;&quot;&gt;Patient Monitor&lt;/font&gt;" style="text;html=1;align=center;verticalAlign=middle;whiteSpace=wrap;rounded=0;" vertex="1" parent="1">
          <mxGeometry x="450" y="830" width="140" height="30" as="geometry" />
        </mxCell>
        <mxCell id="ATVPQ-0Seo1s80Umxvkz-126" style="edgeStyle=orthogonalEdgeStyle;rounded=0;orthogonalLoop=1;jettySize=auto;html=1;exitX=0;exitY=0.5;exitDx=0;exitDy=0;entryX=0.456;entryY=0.104;entryDx=0;entryDy=0;entryPerimeter=0;" edge="1" parent="1" source="ATVPQ-0Seo1s80Umxvkz-68" target="ATVPQ-0Seo1s80Umxvkz-122">
          <mxGeometry relative="1" as="geometry" />
        </mxCell>
        <mxCell id="ATVPQ-0Seo1s80Umxvkz-127" value="" style="sketch=0;pointerEvents=1;shadow=0;dashed=0;html=1;strokeColor=none;labelPosition=center;verticalLabelPosition=bottom;verticalAlign=top;align=center;fillColor=#515151;shape=mxgraph.mscae.enterprise.database_server" vertex="1" parent="1">
          <mxGeometry x="394.5" y="930" width="75.5" height="90" as="geometry" />
        </mxCell>
        <mxCell id="ATVPQ-0Seo1s80Umxvkz-128" value="" style="ellipse;fillColor=strokeColor;html=1;" vertex="1" parent="1">
          <mxGeometry x="-60" y="830" width="60" height="60" as="geometry" />
        </mxCell>
        <mxCell id="ATVPQ-0Seo1s80Umxvkz-129" value="" style="ellipse;fillColor=strokeColor;html=1;" vertex="1" parent="1">
          <mxGeometry x="-60" y="930" width="60" height="60" as="geometry" />
        </mxCell>
        <mxCell id="ATVPQ-0Seo1s80Umxvkz-130" value="&lt;font style=&quot;font-size: 18px;&quot;&gt;Central Monitpring Site for Admin&lt;/font&gt;" style="text;html=1;align=center;verticalAlign=middle;whiteSpace=wrap;rounded=0;" vertex="1" parent="1">
          <mxGeometry x="339.5" y="1040" width="185.5" height="30" as="geometry" />
        </mxCell>
        <mxCell id="ATVPQ-0Seo1s80Umxvkz-131" value="" style="endArrow=classic;startArrow=classic;html=1;rounded=0;entryX=0.5;entryY=1;entryDx=0;entryDy=0;exitX=1;exitY=0.92;exitDx=0;exitDy=0;exitPerimeter=0;" edge="1" parent="1" source="ATVPQ-0Seo1s80Umxvkz-127" target="ATVPQ-0Seo1s80Umxvkz-69">
          <mxGeometry width="50" height="50" relative="1" as="geometry">
            <mxPoint x="540" y="820" as="sourcePoint" />
            <mxPoint x="590" y="770" as="targetPoint" />
            <Array as="points">
              <mxPoint x="640" y="1013" />
            </Array>
          </mxGeometry>
        </mxCell>
        <mxCell id="ATVPQ-0Seo1s80Umxvkz-132" value="" style="endArrow=classic;html=1;rounded=0;exitX=1;exitY=0.5;exitDx=0;exitDy=0;" edge="1" parent="1" source="ATVPQ-0Seo1s80Umxvkz-128">
          <mxGeometry width="50" height="50" relative="1" as="geometry">
            <mxPoint x="540" y="820" as="sourcePoint" />
            <mxPoint x="380" y="960" as="targetPoint" />
          </mxGeometry>
        </mxCell>
        <mxCell id="ATVPQ-0Seo1s80Umxvkz-133" value="" style="endArrow=classic;html=1;rounded=0;exitX=1;exitY=0.5;exitDx=0;exitDy=0;" edge="1" parent="1" source="ATVPQ-0Seo1s80Umxvkz-129">
          <mxGeometry width="50" height="50" relative="1" as="geometry">
            <mxPoint x="540" y="820" as="sourcePoint" />
            <mxPoint x="380" y="970" as="targetPoint" />
          </mxGeometry>
        </mxCell>
        <mxCell id="ATVPQ-0Seo1s80Umxvkz-134" value="" style="endArrow=classic;startArrow=classic;html=1;rounded=0;exitX=0.5;exitY=0;exitDx=0;exitDy=0;" edge="1" parent="1" source="ATVPQ-0Seo1s80Umxvkz-128">
          <mxGeometry width="50" height="50" relative="1" as="geometry">
            <mxPoint x="540" y="820" as="sourcePoint" />
            <mxPoint x="-30" y="670" as="targetPoint" />
          </mxGeometry>
        </mxCell>
        <mxCell id="ATVPQ-0Seo1s80Umxvkz-135" value="&lt;font style=&quot;font-size: 18px;&quot;&gt;Edge Monitoring Nodes&lt;/font&gt;" style="text;html=1;align=center;verticalAlign=middle;whiteSpace=wrap;rounded=0;" vertex="1" parent="1">
          <mxGeometry x="-179" y="890" width="126" height="30" as="geometry" />
        </mxCell>
        <mxCell id="ATVPQ-0Seo1s80Umxvkz-136" value="&lt;font style=&quot;font-size: 18px;&quot;&gt;Cloud Storage &amp;amp; Analysis&lt;/font&gt;" style="text;html=1;align=center;verticalAlign=middle;whiteSpace=wrap;rounded=0;" vertex="1" parent="1">
          <mxGeometry x="575" y="1030" width="160" height="30" as="geometry" />
        </mxCell>
      </root>
    </mxGraphModel>
  </diagram>
</mxfile>
